<?xml version="1.0" encoding="UTF-8"?>
<svg width="30px" height="29px" viewBox="0 0 30 29" version="1.1" xmlns="http://www.w3.org/2000/svg" xmlns:xlink="http://www.w3.org/1999/xlink">
    <title>Icons/UI/Block Arrow</title>
    <g id="2.0" stroke="none" stroke-width="1" fill="none" fill-rule="evenodd">
        <g id="2.0---Page-2" transform="translate(-141.000000, -645.000000)" fill="#525261">
            <g id="Icons/zz-build/ÜÏ/Blôck-Àrrow/Primary" transform="translate(136.000000, 640.000000)">
                <path d="M19.8143111,5.40571321 L34.4406064,18.4068646 C35.133189,19.0224936 35.1826591,20.0713224 34.5890169,20.7488371 L34.4406064,20.898229 L19.8143111,33.8993804 C19.6079197,34.0828394 19.2918835,34.0642491 19.1084245,33.8578577 L17.5582422,32.1139026 C17.3748077,31.9075022 17.3933896,31.5914788 17.5997487,31.4079978 L28.948,21.3186667 L5.5,21.3192135 C5.22385763,21.3192135 5,21.0953559 5,20.8192135 L5,18.4858802 C5,18.2097378 5.22385763,17.9858802 5.5,17.9858802 L28.949,17.9856667 L17.5997487,7.89709582 C17.3933896,7.71361487 17.3748077,7.39759149 17.5582422,7.19119103 L19.1084245,5.44723595 C19.2918835,5.24084457 19.6079197,5.22225421 19.8143111,5.40571321 Z" id="Combined-Shape"></path>
            </g>
        </g>
    </g>
</svg>