<?xml version="1.0" encoding="UTF-8"?>
<svg width="28px" height="31px" viewBox="0 0 28 31" version="1.1" xmlns="http://www.w3.org/2000/svg" xmlns:xlink="http://www.w3.org/1999/xlink">
    <title>restart_alt_400</title>
    <defs>
        <rect id="path-1" x="0" y="0" width="40" height="40"></rect>
    </defs>
    <g id="2.0---English" stroke="none" stroke-width="1" fill="none" fill-rule="evenodd">
        <g id="2.0---Page-10" transform="translate(-142.000000, -644.000000)">
            <g id="restart_alt_400" transform="translate(136.000000, 640.000000)">
                <mask id="mask-2" fill="white">
                    <use xlink:href="#path-1"></use>
                </mask>
                <g id="Rectangle"></g>
                <path d="M18.3333333,34.9166667 C14.9722167,34.5 12.1877833,33.0345 9.98,30.52 C7.77111667,28.0066667 6.66666667,25.0555 6.66666667,21.6666667 C6.66666667,19.8333333 7.02778333,18.0761667 7.75,16.395 C8.47221667,14.715 9.5,13.25 10.8333333,12 L13.2083333,14.375 C12.1527833,15.31945 11.35445,16.4166667 10.8133333,17.6666667 C10.2711167,18.9166667 10,20.25 10,21.6666667 C10,24.1111667 10.7777833,26.2705 12.3333333,28.145 C13.8888833,30.0205 15.8888833,31.1666667 18.3333333,31.5833333 L18.3333333,34.9166667 Z M21.6666667,34.9166667 L21.6666667,31.5833333 C24.0833333,31.1388333 26.0761667,29.9861667 27.645,28.125 C29.215,26.2638333 30,24.1111667 30,21.6666667 C30,18.8888333 29.0278333,16.5277833 27.0833333,14.5833333 C25.1388333,12.6388833 22.7778333,11.6666667 20,11.6666667 L19.875,11.6666667 L21.7083333,13.5 L19.375,15.8333333 L13.5416667,10 L19.375,4.16666667 L21.7083333,6.5 L19.875,8.33333333 L20,8.33333333 C23.7221667,8.33333333 26.875,9.625 29.4583333,12.2083333 C32.0416667,14.7916667 33.3333333,17.9445 33.3333333,21.6666667 C33.3333333,25.0278333 32.2295,27.9655 30.0216667,30.48 C27.8128333,32.9933333 25.0278333,34.4721667 21.6666667,34.9166667 Z" id="Shape" fill="#525261" fill-rule="nonzero" mask="url(#mask-2)"></path>
            </g>
        </g>
    </g>
</svg>