<svg width="50" height="50" fill="none" xmlns="http://www.w3.org/2000/svg"><rect width="50" height="50" rx="9.766" fill="url(#paint0_radial)"/><path fill-rule="evenodd" clip-rule="evenodd" d="M36.354 22.008h-.517s-.46 2.249-1.705 2.555c-1.245.307-2.203-.306-2.567-.843a64.005 64.005 0 01-1.245-1.953c-.172-.288-.057-.69.192-.9.249-.212.843-.23 1.11.555 0-.039.55-1.935 1.674-2.529 1.123-.594 2.905-.249 3.843.153 0 0-.019.537-.114.882-.018.065-.03.129-.042.19-.048.26-.086.46-.552.46-.136 0-.3.003-.472.005-.55.007-1.194.016-1.324-.04-.002-.002-.003-.002-.005-.002l.005.002c.008.006.02.023.04.049.106.147.405.558 1.066.542l.805-.019-.192.893zm-2.317 3.274s1.11.354 2.03-1.983c0 .02 3.85-1.054 4.348-1.245.498-.192.632.249.383.785-.249.537-1.245 2.222-6.264 4.923-.019-.019-.497-2.48-.497-2.48zM30.78 23.97c1.188 1.437 2.548 1.399 2.548 1.399s.344 2.011.36 2.624l.002.038c.016.604.035 1.294-1.11 1.782-6.206 2.816-11.32 2.28-12.144 2.165-.607-.085-.08-.316.867-.73.339-.148.73-.32 1.144-.516 1.57-.747 1.418-1.666 1.418-1.628 3.563-1.073 4.846-2.088 5.517-2.624.67-.537.44-.977-.345-1.15-1.418-.172-3.582.23-4.1.364-.517.134-.46.173-.167.173.293 0 2.792-.096 3.596-.153.805-.058.67.268-.115.804-2.097 1.31-4.624 1.697-5.953 1.9l-.349.054c-1.188.192-1.36-.479-.843-1.264 3.16-4.368 5.651-5.46 6.38-5.69.727-.23 1.857.093 1.857.093s.25.923 1.437 2.36z" fill="url(#paint1_linear)"/><path fill-rule="evenodd" clip-rule="evenodd" d="M28.711 20.509s-5.696-2.427-7.254-2.912c-1.558-.485-7.1-1.482-12.668 3.729 0 .026 2.273 2.528 2.273 2.528s3.244-3.141 7.254-3.473c4.01-.332 7.305 1.229 7.305 1.229s1.558-.948 3.09-1.101z" fill="#003C9E"/><path fill-rule="evenodd" clip-rule="evenodd" d="M24.216 22.526s-2.273 1.865-3.218 3.346c-.026-.05-3.117-.587-6.156 1.89 0-.025-2.298-2.426-2.298-2.426s3.294-4.214 11.672-2.81zM16.273 29.474l2.107 2.247s1.443-.664 2.72-1.124c1.277-.46 1.66-1.123 1.66-1.123s-3.755.178-2.758-1.712c-.026-.05-1.66-.485-3.73 1.712z" fill="#003C9E"/><defs><radialGradient id="paint0_radial" cx="0" cy="0" r="1" gradientUnits="userSpaceOnUse" gradientTransform="matrix(0 50 -50 0 25 0)"><stop stop-color="#006FFF"/><stop offset="1" stop-color="#003C9E"/></radialGradient><linearGradient id="paint1_linear" x1="28.57" y1="41.496" x2="41.053" y2="21.722" gradientUnits="userSpaceOnUse"><stop stop-color="#C2C4CE"/><stop offset=".397" stop-color="#D6D9E2"/><stop offset="1" stop-color="#fff"/></linearGradient></defs></svg>