<?xml version="1.0" encoding="UTF-8"?>
<svg width="16px" height="16px" viewBox="0 0 16 16" version="1.1" xmlns="http://www.w3.org/2000/svg" xmlns:xlink="http://www.w3.org/1999/xlink">
    <title>Icons/UI/X</title>
    <g id="2.0" stroke="none" stroke-width="1" fill="none" fill-rule="evenodd">
        <g id="2.0---Page-2---Linksys-PDP" transform="translate(-20.000000, -20.000000)" fill="#525261" fill-rule="nonzero">
            <g id="Group" transform="translate(16.000000, 16.000000)">
                <g id="State" transform="translate(4.000000, 4.000000)">
                    <path d="M1.69814827,0.353553391 L8,6.655 L14.3018517,0.353553391 C14.4754181,0.179987039 14.7448425,0.160701888 14.9397106,0.29569794 L15.0089585,0.353553391 L15.6464466,0.991041492 C15.8417088,1.18630364 15.8417088,1.50288613 15.6464466,1.69814827 L15.6464466,1.69814827 L9.345,8 L15.6464466,14.3018517 C15.8417088,14.4971139 15.8417088,14.8136964 15.6464466,15.0089585 L15.0089585,15.6464466 C14.8136964,15.8417088 14.4971139,15.8417088 14.3018517,15.6464466 L8,9.345 L1.69814827,15.6464466 C1.52458192,15.820013 1.25515752,15.8392981 1.06028938,15.7043021 L0.991041492,15.6464466 L0.353553391,15.0089585 C0.158291245,14.8136964 0.158291245,14.4971139 0.353553391,14.3018517 L0.353553391,14.3018517 L6.655,8 L0.353553391,1.69814827 C0.158291245,1.50288613 0.158291245,1.18630364 0.353553391,0.991041492 L0.991041492,0.353553391 C1.18630364,0.158291245 1.50288613,0.158291245 1.69814827,0.353553391 Z" id="Combined-Shape"></path>
                </g>
            </g>
        </g>
    </g>
</svg>